HIERARCHY
ROOT Hip
{
	OFFSET 0.000000 0.000000 0.000000 
	CHANNELS 6 Xposition Yposition Zposition Xrotation Yrotation Zrotation
	JOINT LowerSpine
	{
		OFFSET 0.000000 8.345300 -5.129200 
		CHANNELS 3 Xrotation Yrotation Zrotation
		JOINT MiddleSpine
		{
			OFFSET 10.856900 0.000000 0.000000 
			CHANNELS 3 Xrotation Yrotation Zrotation
			JOINT Chest
			{
				OFFSET 15.298400 0.000000 0.000000 
				CHANNELS 3 Xrotation Yrotation Zrotation
				JOINT Neck
				{
					OFFSET 25.661800 -0.598600 0.000000 
					CHANNELS 3 Xrotation Yrotation Zrotation
					JOINT Head
					{
						OFFSET 8.882900 0.000000 0.000000 
						CHANNELS 3 Xrotation Yrotation Zrotation
						End Site
						{
							OFFSET 19.739901 0.000000 0.000000 
						}
					}
				}
				JOINT RClavicle
				{
					OFFSET 23.687799 0.000000 3.158400 
					CHANNELS 3 Xrotation Yrotation Zrotation
					JOINT RShoulder
					{
						OFFSET -15.594500 -3.948000 0.987000 
						CHANNELS 3 Xrotation Yrotation Zrotation
						JOINT RForearm
						{
							OFFSET -31.337000 0.000000 0.197400 
							CHANNELS 3 Xrotation Yrotation Zrotation
							JOINT RHand
							{
								OFFSET -26.402100 0.000000 0.000000 
								CHANNELS 3 Xrotation Yrotation Zrotation
								End Site
								{
									OFFSET -15.791900 -0.987000 0.000000 
								}
							}
						}
					}
				}
				JOINT LClavicle
				{
					OFFSET 23.687799 0.000000 -3.158400 
					CHANNELS 3 Xrotation Yrotation Zrotation
					JOINT LShoulder
					{
						OFFSET -15.594500 -3.948000 -0.987000 
						CHANNELS 3 Xrotation Yrotation Zrotation
						JOINT LForearm
						{
							OFFSET -31.337000 0.000000 -0.197400 
							CHANNELS 3 Xrotation Yrotation Zrotation
							JOINT LHand
							{
								OFFSET -26.402100 0.000000 0.000000 
								CHANNELS 3 Xrotation Yrotation Zrotation
								End Site
								{
									OFFSET -15.791900 -0.987000 0.000000 
								}
							}
						}
					}
				}
			}
		}
	}
	JOINT RThigh
	{
		OFFSET -8.882900 0.448100 0.000000 
		CHANNELS 3 Xrotation Yrotation Zrotation
		JOINT RShin
		{
			OFFSET 43.131599 0.000000 -0.493500 
			CHANNELS 3 Xrotation Yrotation Zrotation
			JOINT RFoot
			{
				OFFSET 0.000000 -44.725601 -0.404700 
				CHANNELS 3 Xrotation Yrotation Zrotation
				JOINT RToe
				{
					OFFSET 0.000000 -3.933200 12.195300 
					CHANNELS 3 Xrotation Yrotation Zrotation
					End Site
					{
						OFFSET 6.772500 0.000000 0.000000 
					}
				}
			}
		}
	}
	JOINT LThigh
	{
		OFFSET 8.882900 0.448100 0.000000 
		CHANNELS 3 Xrotation Yrotation Zrotation
		JOINT LShin
		{
			OFFSET 43.131599 0.000000 0.493500 
			CHANNELS 3 Xrotation Yrotation Zrotation
			JOINT LFoot
			{
				OFFSET 0.000000 -44.725601 0.404700 
				CHANNELS 3 Xrotation Yrotation Zrotation
				JOINT LToe
				{
					OFFSET 0.000000 -3.933200 -12.195300 
					CHANNELS 3 Xrotation Yrotation Zrotation
					End Site
					{
						OFFSET 6.772500 0.000000 0.000000 
					}
				}
			}
		}
	}
}
MOTION
Frames: 7
Frame Time: 0.009949
3.422812 92.690277 -2.697535 -6.932032 12.673260 1.643045 -89.999992 -90.000000 0.000000 1.063355 1.229838 -4.045800 3.866342 3.783904 -13.585030 0.000000 0.000000 0.000000 0.000000 0.000000 0.000000 90.014526 -0.609791 -81.800529 17.890989 30.664410 64.794922 2.910498 28.277300 -6.660217 0.000000 0.000000 0.000000 -90.001259 0.433462 -84.175568 -7.253730 -27.387791 29.118450 -167.238495 -64.630432 -166.208206 0.000000 0.000000 0.000000 -52.985680 87.090851 -25.460911 89.980331 2.183033 89.998177 -6.156916 2.712607 1.211443 179.303101 90.000000 0.000000 -65.527046 85.804916 -19.450380 -89.890999 -12.099380 89.999039 6.839703 3.843766 -1.760784 183.294296 -90.000000 0.000000 
3.691135 92.705612 -2.657005 -7.064900 11.707510 1.515324 -89.999992 -90.000000 0.000000 1.047122 1.320813 -4.055165 3.838898 4.089046 -13.624010 0.000000 0.000000 0.000000 0.000000 0.000000 0.000000 90.014313 -0.607409 -81.832703 17.934410 30.995331 65.188911 2.840940 27.750090 -6.627546 0.000000 0.000000 0.000000 -90.000381 0.416622 -84.402077 -7.326982 -26.817860 28.929090 -167.807007 -63.599571 -166.719696 0.000000 0.000000 0.000000 -52.758732 87.333313 -26.055450 89.971733 3.143633 89.997597 -6.449985 2.997918 1.375599 179.203400 90.000000 0.000000 -64.520210 85.966316 -19.818911 -89.894707 -11.693940 89.998703 6.920266 4.395245 -2.017340 183.258896 -90.000000 0.000000 
3.903357 92.698860 -2.670075 -7.127531 10.941260 1.327564 -89.999992 -90.000000 0.000000 1.028193 1.394126 -4.056880 3.797018 4.337058 -13.635510 0.000000 0.000000 0.000000 0.000000 0.000000 0.000000 90.013603 -0.600004 -81.932480 17.780689 31.610470 65.351402 2.750253 27.054970 -6.585808 0.000000 0.000000 0.000000 -89.999168 0.390840 -84.748711 -7.338356 -26.436239 29.000200 -168.233505 -62.772060 -167.100403 0.000000 0.000000 0.000000 -54.258511 87.473740 -25.511221 89.954689 5.045022 89.996880 -7.156555 3.073561 1.450764 179.277496 90.000000 0.000000 -64.197533 86.026382 -19.740629 -89.896828 -11.463280 89.998497 7.141262 4.701380 -2.189412 183.117599 -90.000000 0.000000 
4.049280 92.675812 -2.701745 -7.133769 10.531340 1.194579 -89.999992 -90.000000 0.000000 1.001705 1.455484 -4.052977 3.726197 4.548025 -13.626360 0.000000 0.000000 0.000000 0.000000 0.000000 0.000000 90.012787 -0.591250 -82.050636 17.662790 32.168228 65.443573 2.675740 26.477230 -6.552250 0.000000 0.000000 0.000000 -89.997864 0.357976 -85.190437 -7.243612 -26.376350 29.072330 -168.469696 -62.292309 -167.309906 0.000000 0.000000 0.000000 -56.629780 87.564148 -24.307100 89.935066 7.228302 89.996742 -8.066684 2.845429 1.373402 179.485199 90.000000 0.000000 -64.231018 86.038368 -19.437531 -89.899010 -11.223210 89.998306 7.463606 4.591649 -2.177996 182.744400 -90.000000 0.000000 
4.179603 92.656960 -2.686415 -7.197158 10.332370 1.138890 -89.999992 -90.000000 0.000000 0.963367 1.509383 -4.046531 3.613653 4.737764 -13.606780 0.000000 0.000000 0.000000 0.000000 0.000000 0.000000 90.012268 -0.585384 -82.129738 17.770130 32.396049 65.655563 2.651549 26.288401 -6.541500 0.000000 0.000000 0.000000 -89.996674 0.320625 -85.692360 -7.124615 -26.408489 29.295099 -168.621506 -61.975510 -167.444107 0.000000 0.000000 0.000000 -58.594101 87.659081 -22.950010 89.923737 8.484548 89.997002 -8.561352 2.605991 1.280139 179.443405 90.000000 0.000000 -64.304901 86.047943 -18.952980 -89.902992 -10.787490 89.998001 7.814329 4.301101 -2.063982 182.080795 -90.000000 0.000000 
4.365626 92.652107 -2.674785 -7.311919 10.024490 1.059361 -89.999992 -90.000000 0.000000 0.910659 1.559524 -4.040830 3.452349 4.918950 -13.587740 0.000000 0.000000 0.000000 0.000000 0.000000 0.000000 90.012291 -0.585669 -82.125900 17.903860 32.588779 65.780373 2.642825 26.220150 -6.537642 0.000000 0.000000 0.000000 -89.995773 0.281523 -86.217690 -7.105264 -26.352579 29.648479 -168.804092 -61.585171 -167.605103 0.000000 0.000000 0.000000 -60.052639 87.783791 -21.755220 89.917664 9.156860 89.997253 -8.598602 2.634960 1.313474 179.039505 90.000000 0.000000 -64.326027 86.078323 -18.466669 -89.906921 -10.355950 89.997726 8.053742 4.226957 -2.042373 181.572800 -90.000000 0.000000 
4.612049 92.653656 -2.721455 -7.381170 9.635175 0.928063 -89.999992 -90.000000 0.000000 0.844069 1.609719 -4.038632 3.245248 5.103868 -13.578720 0.000000 0.000000 0.000000 0.000000 0.000000 0.000000 90.012947 -0.592970 -82.027420 17.891979 33.001678 65.706734 2.599058 25.876530 -6.518423 0.000000 0.000000 0.000000 -89.995247 0.243355 -86.730362 -7.211907 -26.385910 29.869810 -169.001495 -61.151810 -167.778305 0.000000 0.000000 0.000000 -61.766350 87.917503 -20.546009 89.908768 10.137380 89.997726 -8.649125 2.563270 1.289155 178.661102 90.000000 0.000000 -64.280434 86.140709 -18.255569 -89.908447 -10.186850 89.997620 8.102674 4.315706 -2.099243 181.629501 -90.000000 0.000000 
